<svg width="72" height="72" viewBox="0 0 72 72" fill="none" xmlns="http://www.w3.org/2000/svg">
<rect x="1.5" y="1.5" width="69" height="69" rx="34.5" stroke="#AB5234" stroke-width="3"/>
<path d="M36 37.25C36 37.5815 35.8683 37.8995 35.6339 38.1339C35.3995 38.3683 35.0815 38.5 34.75 38.5H27.25C26.9185 38.5 26.6005 38.3683 26.3661 38.1339C26.1317 37.8995 26 37.5815 26 37.25C26 36.9185 26.1317 36.6005 26.3661 36.3661C26.6005 36.1317 26.9185 36 27.25 36H34.75C35.0815 36 35.3995 36.1317 35.6339 36.3661C35.8683 36.6005 36 36.9185 36 37.25ZM34.75 31H27.25C26.9185 31 26.6005 31.1317 26.3661 31.3661C26.1317 31.6005 26 31.9185 26 32.25C26 32.5815 26.1317 32.8995 26.3661 33.1339C26.6005 33.3683 26.9185 33.5 27.25 33.5H34.75C35.0815 33.5 35.3995 33.3683 35.6339 33.1339C35.8683 32.8995 36 32.5815 36 32.25C36 31.9185 35.8683 31.6005 35.6339 31.3661C35.3995 31.1317 35.0815 31 34.75 31ZM52.25 41.2297V51C52.252 51.2204 52.1957 51.4373 52.0868 51.6289C51.9779 51.8205 51.8202 51.9799 51.6299 52.091C51.4395 52.202 51.2232 52.2608 51.0028 52.2612C50.7824 52.2617 50.5658 52.2039 50.375 52.0938L46.625 49.9469L42.875 52.0938C42.6842 52.2039 42.4676 52.2617 42.2472 52.2612C42.0268 52.2608 41.8105 52.202 41.6201 52.091C41.4298 51.9799 41.2721 51.8205 41.1632 51.6289C41.0543 51.4373 40.998 51.2204 41 51V47.25H22.25C21.587 47.25 20.9511 46.9866 20.4822 46.5178C20.0134 46.0489 19.75 45.413 19.75 44.75V24.75C19.75 24.087 20.0134 23.4511 20.4822 22.9822C20.9511 22.5134 21.587 22.25 22.25 22.25H49.75C50.413 22.25 51.0489 22.5134 51.5178 22.9822C51.9866 23.4511 52.25 24.087 52.25 24.75V29.5203C53.0402 30.277 53.669 31.1858 54.0986 32.192C54.5282 33.1982 54.7497 34.2809 54.7497 35.375C54.7497 36.4691 54.5282 37.5518 54.0986 38.558C53.669 39.5642 53.0402 40.473 52.25 41.2297ZM41 44.75V41.2297C39.6378 39.916 38.777 38.168 38.5659 36.2874C38.3549 34.4067 38.807 32.5114 39.8441 30.9285C40.8812 29.3456 42.4384 28.1743 44.2469 27.6168C46.0553 27.0594 48.0017 27.1507 49.75 27.875V24.75H22.25V44.75H41ZM49.75 42.875C48.7601 43.2886 47.6979 43.5016 46.625 43.5016C45.5521 43.5016 44.4899 43.2886 43.5 42.875V48.8469L46 47.4156C46.1889 47.3076 46.4027 47.2508 46.6203 47.2508C46.8379 47.2508 47.0517 47.3076 47.2406 47.4156L49.7406 48.8469L49.75 42.875ZM52.25 35.375C52.25 34.2625 51.9201 33.1749 51.302 32.2499C50.6839 31.3249 49.8054 30.6039 48.7776 30.1782C47.7498 29.7524 46.6188 29.641 45.5276 29.8581C44.4365 30.0751 43.4342 30.6109 42.6475 31.3975C41.8609 32.1842 41.3251 33.1865 41.1081 34.2776C40.891 35.3688 41.0024 36.4998 41.4282 37.5276C41.8539 38.5554 42.5749 39.4339 43.4999 40.052C44.4249 40.6701 45.5125 41 46.625 41C47.3637 41 48.0951 40.8545 48.7776 40.5718C49.46 40.2891 50.0801 39.8748 50.6025 39.3525C51.1248 38.8301 51.5391 38.21 51.8218 37.5276C52.1045 36.8451 52.25 36.1137 52.25 35.375Z" fill="#AB5234"/>
</svg>
