<svg width="72" height="72" viewBox="0 0 72 72" fill="none" xmlns="http://www.w3.org/2000/svg">
<rect x="1.5" y="1.5" width="69" height="69" rx="34.5" stroke="#AB5234" stroke-width="3"/>
<path d="M52.25 23.5C52.25 23.8315 52.1183 24.1495 51.8839 24.3839C51.6495 24.6183 51.3315 24.75 51 24.75H48.5V27.25C48.5 27.5815 48.3683 27.8995 48.1339 28.1339C47.8995 28.3683 47.5815 28.5 47.25 28.5C46.9185 28.5 46.6005 28.3683 46.3661 28.1339C46.1317 27.8995 46 27.5815 46 27.25V24.75H43.5C43.1685 24.75 42.8505 24.6183 42.6161 24.3839C42.3817 24.1495 42.25 23.8315 42.25 23.5C42.25 23.1685 42.3817 22.8505 42.6161 22.6161C42.8505 22.3817 43.1685 22.25 43.5 22.25H46V19.75C46 19.4185 46.1317 19.1005 46.3661 18.8661C46.6005 18.6317 46.9185 18.5 47.25 18.5C47.5815 18.5 47.8995 18.6317 48.1339 18.8661C48.3683 19.1005 48.5 19.4185 48.5 19.75V22.25H51C51.3315 22.25 51.6495 22.3817 51.8839 22.6161C52.1183 22.8505 52.25 23.1685 52.25 23.5ZM49.75 33.5V41.625C49.7505 42.8791 49.3318 44.0974 48.5606 45.0863C47.7893 46.0752 46.7097 46.7781 45.4933 47.0831C44.2769 47.3882 42.9934 47.278 41.8467 46.77C40.7001 46.2621 39.7561 45.3855 39.1647 44.2796C38.5733 43.1737 38.3685 41.9019 38.5827 40.6662C38.7969 39.4306 39.4179 38.3019 40.347 37.4596C41.2762 36.6173 42.4602 36.1097 43.7109 36.0173C44.9616 35.925 46.2072 36.2533 47.25 36.95V33.5C47.25 33.1685 47.3817 32.8505 47.6161 32.6161C47.8505 32.3817 48.1685 32.25 48.5 32.25C48.8315 32.25 49.1495 32.3817 49.3839 32.6161C49.6183 32.8505 49.75 33.1685 49.75 33.5ZM47.25 41.625C47.25 41.0069 47.0667 40.4027 46.7234 39.8888C46.38 39.3749 45.8919 38.9744 45.3209 38.7379C44.7499 38.5014 44.1215 38.4395 43.5154 38.56C42.9092 38.6806 42.3523 38.9783 41.9153 39.4153C41.4783 39.8523 41.1806 40.4092 41.0601 41.0153C40.9395 41.6215 41.0014 42.2499 41.2379 42.8209C41.4744 43.3919 41.8749 43.88 42.3889 44.2233C42.9028 44.5667 43.5069 44.75 44.125 44.75C44.9538 44.75 45.7487 44.4208 46.3347 43.8347C46.9208 43.2487 47.25 42.4538 47.25 41.625ZM29.75 33.2266V46.625C29.7505 47.8791 29.3318 49.0974 28.5606 50.0863C27.7893 51.0752 26.7097 51.778 25.4933 52.0831C24.2769 52.3882 22.9934 52.278 21.8467 51.77C20.7001 51.2621 19.7561 50.3855 19.1647 49.2796C18.5733 48.1737 18.3685 46.9019 18.5827 45.6662C18.7969 44.4306 19.4179 43.3019 20.347 42.4596C21.2762 41.6173 22.4602 41.1097 23.7109 41.0173C24.9616 40.925 26.2072 41.2533 27.25 41.95V24.75C27.25 24.4713 27.3433 24.2005 27.5148 23.9808C27.6864 23.7611 27.9265 23.6051 28.1969 23.5375L36.9469 21.35C37.2662 21.276 37.6019 21.3303 37.8815 21.5014C38.1611 21.6724 38.3624 21.9465 38.4419 22.2645C38.5214 22.5825 38.4728 22.9191 38.3066 23.2016C38.1403 23.4841 37.8697 23.6901 37.5531 23.775L29.75 25.7266V30.6484L40.6969 27.9125C41.0162 27.8385 41.3519 27.8928 41.6315 28.0639C41.9111 28.2349 42.1124 28.509 42.1919 28.827C42.2714 29.145 42.2228 29.4816 42.0566 29.7641C41.8903 30.0466 41.6197 30.2526 41.3031 30.3375L29.75 33.2266ZM27.25 46.625C27.25 46.0069 27.0667 45.4027 26.7234 44.8888C26.38 44.3749 25.8919 43.9744 25.3209 43.7379C24.7499 43.5014 24.1215 43.4395 23.5154 43.56C22.9092 43.6806 22.3523 43.9783 21.9153 44.4153C21.4783 44.8523 21.1806 45.4092 21.0601 46.0153C20.9395 46.6215 21.0014 47.2499 21.2379 47.8209C21.4744 48.3919 21.8749 48.88 22.3889 49.2233C22.9028 49.5667 23.5069 49.75 24.125 49.75C24.9538 49.75 25.7487 49.4208 26.3347 48.8347C26.9208 48.2487 27.25 47.4538 27.25 46.625Z" fill="#AB5234"/>
</svg>
