<svg width="72" height="72" viewBox="0 0 72 72" fill="none" xmlns="http://www.w3.org/2000/svg">
<rect x="1.5" y="1.5" width="69" height="69" rx="34.5" stroke="#AB5234" stroke-width="3"/>
<path d="M22.7469 36C23.2766 36.4357 23.7035 36.9832 23.9969 37.6031C24.7469 39.15 24.7469 41.0406 24.7469 42.875C24.7469 46.6734 24.9031 48.5 28.4969 48.5C28.8284 48.5 29.1463 48.6317 29.3808 48.8661C29.6152 49.1005 29.7469 49.4185 29.7469 49.75C29.7469 50.0815 29.6152 50.3995 29.3808 50.6339C29.1463 50.8683 28.8284 51 28.4969 51C25.7656 51 23.9156 50.0406 22.9969 48.1469C22.2469 46.6 22.2469 44.7094 22.2469 42.875C22.2469 39.0766 22.0906 37.25 18.4969 37.25C18.1654 37.25 17.8474 37.1183 17.613 36.8839C17.3786 36.6495 17.2469 36.3315 17.2469 36C17.2469 35.6685 17.3786 35.3505 17.613 35.1161C17.8474 34.8817 18.1654 34.75 18.4969 34.75C22.0906 34.75 22.2469 32.9234 22.2469 29.125C22.2469 27.2937 22.2469 25.4 22.9969 23.8531C23.9188 21.9594 25.7688 21 28.5 21C28.8315 21 29.1495 21.1317 29.3839 21.3661C29.6183 21.6005 29.75 21.9185 29.75 22.25C29.75 22.5815 29.6183 22.8995 29.3839 23.1339C29.1495 23.3683 28.8315 23.5 28.5 23.5C24.9063 23.5 24.75 25.3266 24.75 29.125C24.75 30.9563 24.75 32.85 24 34.3969C23.7057 35.0172 23.2778 35.5646 22.7469 36ZM53.5 34.75C49.9063 34.75 49.75 32.9234 49.75 29.125C49.75 27.2937 49.75 25.4 49 23.8531C48.0813 21.9594 46.2313 21 43.5 21C43.1685 21 42.8505 21.1317 42.6161 21.3661C42.3817 21.6005 42.25 21.9185 42.25 22.25C42.25 22.5815 42.3817 22.8995 42.6161 23.1339C42.8505 23.3683 43.1685 23.5 43.5 23.5C47.0938 23.5 47.25 25.3266 47.25 29.125C47.25 30.9563 47.25 32.85 48 34.3969C48.2934 35.0168 48.7203 35.5643 49.25 36C48.7203 36.4357 48.2934 36.9832 48 37.6031C47.25 39.15 47.25 41.0406 47.25 42.875C47.25 46.6734 47.0938 48.5 43.5 48.5C43.1685 48.5 42.8505 48.6317 42.6161 48.8661C42.3817 49.1005 42.25 49.4185 42.25 49.75C42.25 50.0815 42.3817 50.3995 42.6161 50.6339C42.8505 50.8683 43.1685 51 43.5 51C46.2313 51 48.0813 50.0406 49 48.1469C49.75 46.6 49.75 44.7094 49.75 42.875C49.75 39.0766 49.9063 37.25 53.5 37.25C53.8315 37.25 54.1495 37.1183 54.3839 36.8839C54.6183 36.6495 54.75 36.3315 54.75 36C54.75 35.6685 54.6183 35.3505 54.3839 35.1161C54.1495 34.8817 53.8315 34.75 53.5 34.75Z" fill="#AB5234"/>
</svg>
