<svg width="394" height="328" viewBox="0 0 394 328" fill="none" xmlns="http://www.w3.org/2000/svg">
<mask id="path-1-outside-1_976_12" maskUnits="userSpaceOnUse" x="0.3172" y="0" width="394" height="271" fill="black">
<rect fill="white" x="0.3172" width="394" height="271"/>
<path d="M95.9063 90.0475C90.4246 90.0475 85.4061 88.6578 80.8508 85.8783C76.3728 83.0216 72.7827 79.2385 70.0804 74.5288C67.4554 69.742 66.1429 64.4533 66.1429 58.6627C66.1429 54.3391 66.9149 50.2858 68.4591 46.5026C70.0032 42.6422 72.1264 39.2837 74.8287 36.4271C77.5309 33.4932 80.6578 31.2156 84.2094 29.5942C87.8381 27.8956 91.7371 27.0464 95.9063 27.0464C101.156 27.0464 105.248 28.0501 108.182 30.0575C111.116 31.9876 113.394 34.5741 115.015 37.8168V28.3203H130.534V88.542H115.362V78.698C113.741 82.0951 111.425 84.836 108.414 86.9206C105.48 89.0052 101.311 90.0475 95.9063 90.0475ZM98.4541 75.9186C101.928 75.9186 104.901 75.1465 107.372 73.6023C109.919 71.981 111.888 69.8578 113.278 67.2327C114.668 64.6077 115.362 61.751 115.362 58.6627C115.362 55.4972 114.668 52.602 113.278 49.9769C111.888 47.3519 109.919 45.2287 107.372 43.6073C104.901 41.986 101.928 41.1753 98.4541 41.1753C95.1342 41.1753 92.2003 41.986 89.6525 43.6073C87.1818 45.1515 85.2517 47.2361 83.8619 49.8611C82.4722 52.4862 81.7773 55.3814 81.7773 58.5469C81.7773 61.558 82.4722 64.4147 83.8619 67.1169C85.2517 69.742 87.1818 71.8652 89.6525 73.4865C92.2003 75.1079 95.1342 75.9186 98.4541 75.9186Z"/>
<path d="M141.908 88.542V41.6385H133.453V28.3203H141.908V24.2669C141.908 18.1675 143.722 13.2649 147.351 9.55892C150.979 5.85297 155.844 4 161.943 4H168.428V17.3183H164.375C159.82 17.3183 157.542 19.7117 157.542 24.4985V28.3203H169.818V41.6385H157.542V88.542H141.908Z"/>
<path d="M172.739 88.542V28.3203H187.91V39.7856C188.914 35.462 190.96 32.1806 194.048 29.9416C197.136 27.6254 201.305 26.6217 206.555 26.9306V41.6385H204.355C199.877 41.6385 196.094 43.0669 193.006 45.9235C189.917 48.7802 188.373 52.7178 188.373 57.7363V88.542H172.739Z"/>
<path d="M217.2 23.3404C214.575 23.3404 212.336 22.4525 210.483 20.6768C208.707 18.8238 207.819 16.6234 207.819 14.0755C207.819 11.6049 208.707 9.48172 210.483 7.70595C212.336 5.85297 214.575 4.92648 217.2 4.92648C219.902 4.92648 222.141 5.85297 223.917 7.70595C225.693 9.48172 226.581 11.6049 226.581 14.0755C226.581 16.7006 225.693 18.901 223.917 20.6768C222.141 22.4525 219.902 23.3404 217.2 23.3404ZM209.441 88.542V28.3203H225.075V88.542H209.441Z"/>
<path d="M260.727 90.0475C256.403 90.0475 252.35 89.2368 248.567 87.6155C244.861 85.9941 241.579 83.7551 238.723 80.8984C235.866 77.9646 233.627 74.606 232.006 70.8229C230.462 66.9625 229.69 62.8319 229.69 58.4311C229.69 52.5634 231.041 47.2747 233.743 42.565C236.522 37.7782 240.306 33.9564 245.092 31.0997C249.956 28.2431 255.438 26.8147 261.538 26.8147C267.019 26.7375 271.922 27.7026 276.246 29.71C280.569 31.7174 284.005 34.4969 286.553 38.0484L274.508 47.8923C273.119 45.8077 271.304 44.1478 269.065 42.9125C266.903 41.6771 264.471 41.0595 261.769 41.0595C258.449 41.0595 255.554 41.8702 253.083 43.4915C250.613 45.0357 248.683 47.1203 247.293 49.7453C245.98 52.3703 245.324 55.2656 245.324 58.4311C245.324 61.5194 246.019 64.4147 247.409 67.1169C248.876 69.742 250.844 71.8652 253.315 73.4865C255.863 75.0307 258.797 75.8028 262.117 75.8028C265.128 75.8028 267.676 75.1465 269.76 73.834C271.845 72.4442 273.659 70.7071 275.203 68.6225L286.553 78.4664C283.696 82.0951 280.145 84.9518 275.898 87.0364C271.729 89.0438 266.672 90.0475 260.727 90.0475Z"/>
<path d="M314.024 90.0475C308.543 90.0475 303.524 88.6578 298.969 85.8783C294.491 83.0216 290.901 79.2385 288.198 74.5288C285.573 69.742 284.261 64.4533 284.261 58.6627C284.261 54.3391 285.033 50.2858 286.577 46.5026C288.121 42.6422 290.244 39.2837 292.947 36.4271C295.649 33.4932 298.776 31.2156 302.327 29.5942C305.956 27.8956 309.855 27.0464 314.024 27.0464C319.274 27.0464 323.366 28.0501 326.3 30.0575C329.234 31.9876 331.512 34.5741 333.133 37.8168V28.3203H348.652V88.542H333.481V78.698C331.859 82.0951 329.543 84.836 326.532 86.9206C323.598 89.0052 319.429 90.0475 314.024 90.0475ZM316.572 75.9186C320.046 75.9186 323.019 75.1465 325.49 73.6023C328.037 71.981 330.006 69.8578 331.396 67.2327C332.786 64.6077 333.481 61.751 333.481 58.6627C333.481 55.4972 332.786 52.602 331.396 49.9769C330.006 47.3519 328.037 45.2287 325.49 43.6073C323.019 41.986 320.046 41.1753 316.572 41.1753C313.252 41.1753 310.318 41.986 307.771 43.6073C305.3 45.1515 303.37 47.2361 301.98 49.8611C300.59 52.4862 299.895 55.3814 299.895 58.5469C299.895 61.558 300.59 64.4147 301.98 67.1169C303.37 69.742 305.3 71.8652 307.771 73.4865C310.318 75.1079 313.252 75.9186 316.572 75.9186Z"/>
<path d="M109.578 201.052C108.034 201.052 106.297 200.975 104.367 200.821C102.437 200.666 100.7 200.357 99.1554 199.894L101.472 184.955C103.633 185.495 105.988 185.765 108.536 185.765C111.547 185.765 114.018 184.877 115.948 183.102C117.878 181.403 119.268 179.241 120.117 176.616L120.928 174.068L97.0708 116.626H115.948L127.645 151.022C128.726 154.11 129.575 157.314 130.193 160.634C130.81 157.314 131.66 154.11 132.741 151.022L144.437 116.626H162.967L136.331 180.67C133.783 186.769 130.463 191.672 126.371 195.377C122.279 199.161 116.681 201.052 109.578 201.052Z"/>
<path d="M191.788 178.353C185.611 178.353 180.091 176.925 175.227 174.068C170.363 171.212 166.541 167.428 163.762 162.719C161.059 157.932 159.708 152.643 159.708 146.853C159.708 141.062 161.059 135.773 163.762 130.987C166.541 126.2 170.363 122.378 175.227 119.521C180.091 116.665 185.611 115.236 191.788 115.236C198.042 115.236 203.562 116.665 208.349 119.521C213.213 122.378 216.996 126.2 219.698 130.987C222.478 135.773 223.867 141.062 223.867 146.853C223.867 152.643 222.478 157.932 219.698 162.719C216.996 167.428 213.213 171.212 208.349 174.068C203.562 176.925 198.042 178.353 191.788 178.353ZM191.788 164.109C195.108 164.109 198.003 163.336 200.474 161.792C202.944 160.171 204.836 158.048 206.148 155.423C207.538 152.798 208.233 149.941 208.233 146.853C208.233 143.687 207.538 140.792 206.148 138.167C204.836 135.542 202.944 133.457 200.474 131.913C198.003 130.292 195.108 129.481 191.788 129.481C188.468 129.481 185.573 130.292 183.102 131.913C180.631 133.457 178.701 135.542 177.311 138.167C175.999 140.792 175.343 143.687 175.343 146.853C175.343 149.941 175.999 152.798 177.311 155.423C178.701 158.048 180.631 160.171 183.102 161.792C185.573 163.336 188.468 164.109 191.788 164.109Z"/>
<path d="M253.139 178.237C248.815 178.237 244.916 177.234 241.442 175.226C237.967 173.219 235.227 170.362 233.219 166.656C231.212 162.873 230.208 158.472 230.208 153.454V116.626H245.843V149.632C245.843 154.805 246.885 158.588 248.969 160.982C251.054 163.375 254.027 164.572 257.887 164.572C261.207 164.572 264.102 163.375 266.573 160.982C269.121 158.588 270.394 154.805 270.394 149.632V116.626H286.029V176.848H270.858V167.815C269.391 171.289 267.229 173.914 264.372 175.69C261.593 177.388 257.848 178.237 253.139 178.237Z"/>
<path d="M318.067 176.848C312.122 176.848 307.567 175.381 304.401 172.447C301.236 169.513 299.653 164.765 299.653 158.202V129.944H291.199V116.626H299.653V104.466L315.287 102.845V116.626H328.027V129.944H315.287V157.392C315.287 161.097 316.909 162.95 320.152 162.95H326.637V176.848H318.067Z"/>
<path d="M333.253 176.848V92.3058H348.887V124.964C352.13 118.479 358.191 115.236 367.069 115.236C371.393 115.236 375.292 116.24 378.766 118.247C382.241 120.255 384.982 123.112 386.989 126.817C388.996 130.523 390 134.924 390 140.02V176.848H374.366V143.842C374.366 138.592 373.169 134.808 370.775 132.492C368.382 130.099 365.255 128.902 361.395 128.902C358.075 128.902 355.141 130.099 352.593 132.492C350.122 134.808 348.887 138.592 348.887 143.842V176.848H333.253Z"/>
<path d="M12.7714 265.154V218.25H4.3172V204.932H12.7714V200.879C12.7714 194.779 14.5858 189.876 18.2145 186.171C21.8433 182.465 26.7073 180.612 32.8067 180.612H39.2921V193.93H35.2387C30.6835 193.93 28.4059 196.323 28.4059 201.11V204.932H40.6818V218.25H28.4059V265.154H12.7714Z"/>
<path d="M69.4988 266.659C63.3222 266.659 57.8791 265.231 53.1695 262.374C48.4599 259.517 44.7925 255.734 42.1675 251.025C39.6196 246.238 38.3457 240.949 38.3457 235.159C38.3457 229.368 39.6968 224.079 42.3991 219.292C45.1013 214.428 48.7687 210.568 53.4011 207.711C58.1108 204.855 63.4767 203.426 69.4988 203.426C75.521 203.426 80.8097 204.855 85.3649 207.711C89.9974 210.568 93.5875 214.428 96.1353 219.292C98.7604 224.079 100.073 229.368 100.073 235.159C100.073 236.008 100.034 236.896 99.9571 237.822C99.8799 238.749 99.7641 239.714 99.6097 240.717H54.5592C55.4085 244.269 57.1071 247.164 59.6549 249.403C62.28 251.642 65.5613 252.762 69.4988 252.762C72.8959 252.762 75.8298 251.99 78.3005 250.446C80.8483 248.901 82.8171 246.971 84.2068 244.655L96.367 253.804C93.9735 257.587 90.3834 260.676 85.5966 263.069C80.8097 265.462 75.4438 266.659 69.4988 266.659ZM69.2672 216.86C65.5613 216.86 62.3958 217.98 59.7707 220.219C57.1457 222.458 55.4085 225.392 54.5592 229.021H84.3226C83.4733 225.701 81.6976 222.844 78.9953 220.451C76.3703 218.057 73.1276 216.86 69.2672 216.86Z"/>
<path d="M123.538 266.659C113.424 266.659 105.086 263.146 98.523 256.12L109.062 246.508C113.463 251.449 118.172 253.92 123.191 253.92C125.893 253.92 127.939 253.341 129.329 252.183C130.796 250.947 131.529 249.442 131.529 247.666C131.529 246.585 131.259 245.659 130.718 244.887C130.255 244.115 129.213 243.381 127.592 242.686C126.047 241.991 123.693 241.297 120.527 240.602C115.123 239.289 111.108 237.668 108.483 235.738C105.858 233.807 104.121 231.646 103.271 229.252C102.422 226.859 101.997 224.388 101.997 221.84C101.997 216.59 103.966 212.228 107.904 208.754C111.918 205.202 117.439 203.426 124.465 203.426C129.329 203.426 133.498 204.16 136.972 205.627C140.447 207.094 143.728 209.835 146.816 213.849L135.467 222.535C134 220.219 132.34 218.559 130.487 217.555C128.711 216.552 126.819 216.05 124.812 216.05C122.65 216.05 120.836 216.474 119.369 217.324C117.979 218.173 117.284 219.524 117.284 221.377C117.284 222.381 117.748 223.384 118.674 224.388C119.601 225.315 121.84 226.241 125.391 227.168C131.259 228.635 135.737 230.372 138.825 232.379C141.914 234.309 144.037 236.51 145.195 238.98C146.353 241.451 146.932 244.192 146.932 247.203C146.932 250.909 145.89 254.229 143.805 257.163C141.798 260.096 139.018 262.413 135.467 264.111C131.992 265.81 128.016 266.659 123.538 266.659Z"/>
<path d="M172.506 265.154C166.561 265.154 162.006 263.687 158.841 260.753C155.675 257.819 154.092 253.071 154.092 246.508V218.25H145.638V204.932H154.092V192.772L169.727 191.15V204.932H182.466V218.25H169.727V245.697C169.727 249.403 171.348 251.256 174.591 251.256H181.076V265.154H172.506Z"/>
<path d="M193.135 199.952C190.51 199.952 188.271 199.064 186.418 197.288C184.642 195.435 183.754 193.235 183.754 190.687C183.754 188.217 184.642 186.093 186.418 184.318C188.271 182.465 190.51 181.538 193.135 181.538C195.837 181.538 198.076 182.465 199.852 184.318C201.628 186.093 202.516 188.217 202.516 190.687C202.516 193.312 201.628 195.513 199.852 197.288C198.076 199.064 195.837 199.952 193.135 199.952ZM185.376 265.154V204.932H201.01V265.154H185.376Z"/>
<path d="M226.702 265.154L201.571 204.932H220.101L232.145 239.328C233.226 242.416 234.075 245.62 234.693 248.94C235.311 245.62 236.16 242.416 237.241 239.328L249.285 204.932H267.468L242.452 265.154H226.702Z"/>
<path d="M291.656 266.659C286.174 266.659 281.156 265.269 276.6 262.49C272.122 259.633 268.532 255.85 265.83 251.14C263.205 246.354 261.892 241.065 261.892 235.274C261.892 230.951 262.664 226.897 264.209 223.114C265.753 219.254 267.876 215.895 270.578 213.039C273.28 210.105 276.407 207.827 279.959 206.206C283.588 204.507 287.487 203.658 291.656 203.658C296.906 203.658 300.998 204.662 303.932 206.669C306.866 208.599 309.143 211.186 310.765 214.428V204.932H326.283V265.154H311.112V255.31C309.491 258.707 307.174 261.448 304.163 263.532C301.23 265.617 297.06 266.659 291.656 266.659ZM294.204 252.53C297.678 252.53 300.65 251.758 303.121 250.214C305.669 248.593 307.638 246.469 309.027 243.844C310.417 241.219 311.112 238.363 311.112 235.274C311.112 232.109 310.417 229.214 309.027 226.589C307.638 223.963 305.669 221.84 303.121 220.219C300.65 218.598 297.678 217.787 294.204 217.787C290.884 217.787 287.95 218.598 285.402 220.219C282.931 221.763 281.001 223.848 279.611 226.473C278.222 229.098 277.527 231.993 277.527 235.159C277.527 238.17 278.222 241.026 279.611 243.729C281.001 246.354 282.931 248.477 285.402 250.098C287.95 251.719 290.884 252.53 294.204 252.53Z"/>
<path d="M333.256 265.154V180.612H348.891V265.154H333.256Z"/>
</mask>
<path d="M95.9063 90.0475C90.4246 90.0475 85.4061 88.6578 80.8508 85.8783C76.3728 83.0216 72.7827 79.2385 70.0804 74.5288C67.4554 69.742 66.1429 64.4533 66.1429 58.6627C66.1429 54.3391 66.9149 50.2858 68.4591 46.5026C70.0032 42.6422 72.1264 39.2837 74.8287 36.4271C77.5309 33.4932 80.6578 31.2156 84.2094 29.5942C87.8381 27.8956 91.7371 27.0464 95.9063 27.0464C101.156 27.0464 105.248 28.0501 108.182 30.0575C111.116 31.9876 113.394 34.5741 115.015 37.8168V28.3203H130.534V88.542H115.362V78.698C113.741 82.0951 111.425 84.836 108.414 86.9206C105.48 89.0052 101.311 90.0475 95.9063 90.0475ZM98.4541 75.9186C101.928 75.9186 104.901 75.1465 107.372 73.6023C109.919 71.981 111.888 69.8578 113.278 67.2327C114.668 64.6077 115.362 61.751 115.362 58.6627C115.362 55.4972 114.668 52.602 113.278 49.9769C111.888 47.3519 109.919 45.2287 107.372 43.6073C104.901 41.986 101.928 41.1753 98.4541 41.1753C95.1342 41.1753 92.2003 41.986 89.6525 43.6073C87.1818 45.1515 85.2517 47.2361 83.8619 49.8611C82.4722 52.4862 81.7773 55.3814 81.7773 58.5469C81.7773 61.558 82.4722 64.4147 83.8619 67.1169C85.2517 69.742 87.1818 71.8652 89.6525 73.4865C92.2003 75.1079 95.1342 75.9186 98.4541 75.9186Z" fill="#DF9847"/>
<path d="M141.908 88.542V41.6385H133.453V28.3203H141.908V24.2669C141.908 18.1675 143.722 13.2649 147.351 9.55892C150.979 5.85297 155.844 4 161.943 4H168.428V17.3183H164.375C159.82 17.3183 157.542 19.7117 157.542 24.4985V28.3203H169.818V41.6385H157.542V88.542H141.908Z" fill="#DF9847"/>
<path d="M172.739 88.542V28.3203H187.91V39.7856C188.914 35.462 190.96 32.1806 194.048 29.9416C197.136 27.6254 201.305 26.6217 206.555 26.9306V41.6385H204.355C199.877 41.6385 196.094 43.0669 193.006 45.9235C189.917 48.7802 188.373 52.7178 188.373 57.7363V88.542H172.739Z" fill="#DF9847"/>
<path d="M217.2 23.3404C214.575 23.3404 212.336 22.4525 210.483 20.6768C208.707 18.8238 207.819 16.6234 207.819 14.0755C207.819 11.6049 208.707 9.48172 210.483 7.70595C212.336 5.85297 214.575 4.92648 217.2 4.92648C219.902 4.92648 222.141 5.85297 223.917 7.70595C225.693 9.48172 226.581 11.6049 226.581 14.0755C226.581 16.7006 225.693 18.901 223.917 20.6768C222.141 22.4525 219.902 23.3404 217.2 23.3404ZM209.441 88.542V28.3203H225.075V88.542H209.441Z" fill="#DF9847"/>
<path d="M260.727 90.0475C256.403 90.0475 252.35 89.2368 248.567 87.6155C244.861 85.9941 241.579 83.7551 238.723 80.8984C235.866 77.9646 233.627 74.606 232.006 70.8229C230.462 66.9625 229.69 62.8319 229.69 58.4311C229.69 52.5634 231.041 47.2747 233.743 42.565C236.522 37.7782 240.306 33.9564 245.092 31.0997C249.956 28.2431 255.438 26.8147 261.538 26.8147C267.019 26.7375 271.922 27.7026 276.246 29.71C280.569 31.7174 284.005 34.4969 286.553 38.0484L274.508 47.8923C273.119 45.8077 271.304 44.1478 269.065 42.9125C266.903 41.6771 264.471 41.0595 261.769 41.0595C258.449 41.0595 255.554 41.8702 253.083 43.4915C250.613 45.0357 248.683 47.1203 247.293 49.7453C245.98 52.3703 245.324 55.2656 245.324 58.4311C245.324 61.5194 246.019 64.4147 247.409 67.1169C248.876 69.742 250.844 71.8652 253.315 73.4865C255.863 75.0307 258.797 75.8028 262.117 75.8028C265.128 75.8028 267.676 75.1465 269.76 73.834C271.845 72.4442 273.659 70.7071 275.203 68.6225L286.553 78.4664C283.696 82.0951 280.145 84.9518 275.898 87.0364C271.729 89.0438 266.672 90.0475 260.727 90.0475Z" fill="#DF9847"/>
<path d="M314.024 90.0475C308.543 90.0475 303.524 88.6578 298.969 85.8783C294.491 83.0216 290.901 79.2385 288.198 74.5288C285.573 69.742 284.261 64.4533 284.261 58.6627C284.261 54.3391 285.033 50.2858 286.577 46.5026C288.121 42.6422 290.244 39.2837 292.947 36.4271C295.649 33.4932 298.776 31.2156 302.327 29.5942C305.956 27.8956 309.855 27.0464 314.024 27.0464C319.274 27.0464 323.366 28.0501 326.3 30.0575C329.234 31.9876 331.512 34.5741 333.133 37.8168V28.3203H348.652V88.542H333.481V78.698C331.859 82.0951 329.543 84.836 326.532 86.9206C323.598 89.0052 319.429 90.0475 314.024 90.0475ZM316.572 75.9186C320.046 75.9186 323.019 75.1465 325.49 73.6023C328.037 71.981 330.006 69.8578 331.396 67.2327C332.786 64.6077 333.481 61.751 333.481 58.6627C333.481 55.4972 332.786 52.602 331.396 49.9769C330.006 47.3519 328.037 45.2287 325.49 43.6073C323.019 41.986 320.046 41.1753 316.572 41.1753C313.252 41.1753 310.318 41.986 307.771 43.6073C305.3 45.1515 303.37 47.2361 301.98 49.8611C300.59 52.4862 299.895 55.3814 299.895 58.5469C299.895 61.558 300.59 64.4147 301.98 67.1169C303.37 69.742 305.3 71.8652 307.771 73.4865C310.318 75.1079 313.252 75.9186 316.572 75.9186Z" fill="#DF9847"/>
<path d="M109.578 201.052C108.034 201.052 106.297 200.975 104.367 200.821C102.437 200.666 100.7 200.357 99.1554 199.894L101.472 184.955C103.633 185.495 105.988 185.765 108.536 185.765C111.547 185.765 114.018 184.877 115.948 183.102C117.878 181.403 119.268 179.241 120.117 176.616L120.928 174.068L97.0708 116.626H115.948L127.645 151.022C128.726 154.11 129.575 157.314 130.193 160.634C130.81 157.314 131.66 154.11 132.741 151.022L144.437 116.626H162.967L136.331 180.67C133.783 186.769 130.463 191.672 126.371 195.377C122.279 199.161 116.681 201.052 109.578 201.052Z" fill="#DF9847"/>
<path d="M191.788 178.353C185.611 178.353 180.091 176.925 175.227 174.068C170.363 171.212 166.541 167.428 163.762 162.719C161.059 157.932 159.708 152.643 159.708 146.853C159.708 141.062 161.059 135.773 163.762 130.987C166.541 126.2 170.363 122.378 175.227 119.521C180.091 116.665 185.611 115.236 191.788 115.236C198.042 115.236 203.562 116.665 208.349 119.521C213.213 122.378 216.996 126.2 219.698 130.987C222.478 135.773 223.867 141.062 223.867 146.853C223.867 152.643 222.478 157.932 219.698 162.719C216.996 167.428 213.213 171.212 208.349 174.068C203.562 176.925 198.042 178.353 191.788 178.353ZM191.788 164.109C195.108 164.109 198.003 163.336 200.474 161.792C202.944 160.171 204.836 158.048 206.148 155.423C207.538 152.798 208.233 149.941 208.233 146.853C208.233 143.687 207.538 140.792 206.148 138.167C204.836 135.542 202.944 133.457 200.474 131.913C198.003 130.292 195.108 129.481 191.788 129.481C188.468 129.481 185.573 130.292 183.102 131.913C180.631 133.457 178.701 135.542 177.311 138.167C175.999 140.792 175.343 143.687 175.343 146.853C175.343 149.941 175.999 152.798 177.311 155.423C178.701 158.048 180.631 160.171 183.102 161.792C185.573 163.336 188.468 164.109 191.788 164.109Z" fill="#DF9847"/>
<path d="M253.139 178.237C248.815 178.237 244.916 177.234 241.442 175.226C237.967 173.219 235.227 170.362 233.219 166.656C231.212 162.873 230.208 158.472 230.208 153.454V116.626H245.843V149.632C245.843 154.805 246.885 158.588 248.969 160.982C251.054 163.375 254.027 164.572 257.887 164.572C261.207 164.572 264.102 163.375 266.573 160.982C269.121 158.588 270.394 154.805 270.394 149.632V116.626H286.029V176.848H270.858V167.815C269.391 171.289 267.229 173.914 264.372 175.69C261.593 177.388 257.848 178.237 253.139 178.237Z" fill="#DF9847"/>
<path d="M318.067 176.848C312.122 176.848 307.567 175.381 304.401 172.447C301.236 169.513 299.653 164.765 299.653 158.202V129.944H291.199V116.626H299.653V104.466L315.287 102.845V116.626H328.027V129.944H315.287V157.392C315.287 161.097 316.909 162.95 320.152 162.95H326.637V176.848H318.067Z" fill="#DF9847"/>
<path d="M333.253 176.848V92.3058H348.887V124.964C352.13 118.479 358.191 115.236 367.069 115.236C371.393 115.236 375.292 116.24 378.766 118.247C382.241 120.255 384.982 123.112 386.989 126.817C388.996 130.523 390 134.924 390 140.02V176.848H374.366V143.842C374.366 138.592 373.169 134.808 370.775 132.492C368.382 130.099 365.255 128.902 361.395 128.902C358.075 128.902 355.141 130.099 352.593 132.492C350.122 134.808 348.887 138.592 348.887 143.842V176.848H333.253Z" fill="#DF9847"/>
<path d="M12.7714 265.154V218.25H4.3172V204.932H12.7714V200.879C12.7714 194.779 14.5858 189.876 18.2145 186.171C21.8433 182.465 26.7073 180.612 32.8067 180.612H39.2921V193.93H35.2387C30.6835 193.93 28.4059 196.323 28.4059 201.11V204.932H40.6818V218.25H28.4059V265.154H12.7714Z" fill="#DF9847"/>
<path d="M69.4988 266.659C63.3222 266.659 57.8791 265.231 53.1695 262.374C48.4599 259.517 44.7925 255.734 42.1675 251.025C39.6196 246.238 38.3457 240.949 38.3457 235.159C38.3457 229.368 39.6968 224.079 42.3991 219.292C45.1013 214.428 48.7687 210.568 53.4011 207.711C58.1108 204.855 63.4767 203.426 69.4988 203.426C75.521 203.426 80.8097 204.855 85.3649 207.711C89.9974 210.568 93.5875 214.428 96.1353 219.292C98.7604 224.079 100.073 229.368 100.073 235.159C100.073 236.008 100.034 236.896 99.9571 237.822C99.8799 238.749 99.7641 239.714 99.6097 240.717H54.5592C55.4085 244.269 57.1071 247.164 59.6549 249.403C62.28 251.642 65.5613 252.762 69.4988 252.762C72.8959 252.762 75.8298 251.99 78.3005 250.446C80.8483 248.901 82.8171 246.971 84.2068 244.655L96.367 253.804C93.9735 257.587 90.3834 260.676 85.5966 263.069C80.8097 265.462 75.4438 266.659 69.4988 266.659ZM69.2672 216.86C65.5613 216.86 62.3958 217.98 59.7707 220.219C57.1457 222.458 55.4085 225.392 54.5592 229.021H84.3226C83.4733 225.701 81.6976 222.844 78.9953 220.451C76.3703 218.057 73.1276 216.86 69.2672 216.86Z" fill="#DF9847"/>
<path d="M123.538 266.659C113.424 266.659 105.086 263.146 98.523 256.12L109.062 246.508C113.463 251.449 118.172 253.92 123.191 253.92C125.893 253.92 127.939 253.341 129.329 252.183C130.796 250.947 131.529 249.442 131.529 247.666C131.529 246.585 131.259 245.659 130.718 244.887C130.255 244.115 129.213 243.381 127.592 242.686C126.047 241.991 123.693 241.297 120.527 240.602C115.123 239.289 111.108 237.668 108.483 235.738C105.858 233.807 104.121 231.646 103.271 229.252C102.422 226.859 101.997 224.388 101.997 221.84C101.997 216.59 103.966 212.228 107.904 208.754C111.918 205.202 117.439 203.426 124.465 203.426C129.329 203.426 133.498 204.16 136.972 205.627C140.447 207.094 143.728 209.835 146.816 213.849L135.467 222.535C134 220.219 132.34 218.559 130.487 217.555C128.711 216.552 126.819 216.05 124.812 216.05C122.65 216.05 120.836 216.474 119.369 217.324C117.979 218.173 117.284 219.524 117.284 221.377C117.284 222.381 117.748 223.384 118.674 224.388C119.601 225.315 121.84 226.241 125.391 227.168C131.259 228.635 135.737 230.372 138.825 232.379C141.914 234.309 144.037 236.51 145.195 238.98C146.353 241.451 146.932 244.192 146.932 247.203C146.932 250.909 145.89 254.229 143.805 257.163C141.798 260.096 139.018 262.413 135.467 264.111C131.992 265.81 128.016 266.659 123.538 266.659Z" fill="#DF9847"/>
<path d="M172.506 265.154C166.561 265.154 162.006 263.687 158.841 260.753C155.675 257.819 154.092 253.071 154.092 246.508V218.25H145.638V204.932H154.092V192.772L169.727 191.15V204.932H182.466V218.25H169.727V245.697C169.727 249.403 171.348 251.256 174.591 251.256H181.076V265.154H172.506Z" fill="#DF9847"/>
<path d="M193.135 199.952C190.51 199.952 188.271 199.064 186.418 197.288C184.642 195.435 183.754 193.235 183.754 190.687C183.754 188.217 184.642 186.093 186.418 184.318C188.271 182.465 190.51 181.538 193.135 181.538C195.837 181.538 198.076 182.465 199.852 184.318C201.628 186.093 202.516 188.217 202.516 190.687C202.516 193.312 201.628 195.513 199.852 197.288C198.076 199.064 195.837 199.952 193.135 199.952ZM185.376 265.154V204.932H201.01V265.154H185.376Z" fill="#DF9847"/>
<path d="M226.702 265.154L201.571 204.932H220.101L232.145 239.328C233.226 242.416 234.075 245.62 234.693 248.94C235.311 245.62 236.16 242.416 237.241 239.328L249.285 204.932H267.468L242.452 265.154H226.702Z" fill="#DF9847"/>
<path d="M291.656 266.659C286.174 266.659 281.156 265.269 276.6 262.49C272.122 259.633 268.532 255.85 265.83 251.14C263.205 246.354 261.892 241.065 261.892 235.274C261.892 230.951 262.664 226.897 264.209 223.114C265.753 219.254 267.876 215.895 270.578 213.039C273.28 210.105 276.407 207.827 279.959 206.206C283.588 204.507 287.487 203.658 291.656 203.658C296.906 203.658 300.998 204.662 303.932 206.669C306.866 208.599 309.143 211.186 310.765 214.428V204.932H326.283V265.154H311.112V255.31C309.491 258.707 307.174 261.448 304.163 263.532C301.23 265.617 297.06 266.659 291.656 266.659ZM294.204 252.53C297.678 252.53 300.65 251.758 303.121 250.214C305.669 248.593 307.638 246.469 309.027 243.844C310.417 241.219 311.112 238.363 311.112 235.274C311.112 232.109 310.417 229.214 309.027 226.589C307.638 223.963 305.669 221.84 303.121 220.219C300.65 218.598 297.678 217.787 294.204 217.787C290.884 217.787 287.95 218.598 285.402 220.219C282.931 221.763 281.001 223.848 279.611 226.473C278.222 229.098 277.527 231.993 277.527 235.159C277.527 238.17 278.222 241.026 279.611 243.729C281.001 246.354 282.931 248.477 285.402 250.098C287.95 251.719 290.884 252.53 294.204 252.53Z" fill="#DF9847"/>
<path d="M333.256 265.154V180.612H348.891V265.154H333.256Z" fill="#DF9847"/>
<path d="M95.9063 90.0475C90.4246 90.0475 85.4061 88.6578 80.8508 85.8783C76.3728 83.0216 72.7827 79.2385 70.0804 74.5288C67.4554 69.742 66.1429 64.4533 66.1429 58.6627C66.1429 54.3391 66.9149 50.2858 68.4591 46.5026C70.0032 42.6422 72.1264 39.2837 74.8287 36.4271C77.5309 33.4932 80.6578 31.2156 84.2094 29.5942C87.8381 27.8956 91.7371 27.0464 95.9063 27.0464C101.156 27.0464 105.248 28.0501 108.182 30.0575C111.116 31.9876 113.394 34.5741 115.015 37.8168V28.3203H130.534V88.542H115.362V78.698C113.741 82.0951 111.425 84.836 108.414 86.9206C105.48 89.0052 101.311 90.0475 95.9063 90.0475ZM98.4541 75.9186C101.928 75.9186 104.901 75.1465 107.372 73.6023C109.919 71.981 111.888 69.8578 113.278 67.2327C114.668 64.6077 115.362 61.751 115.362 58.6627C115.362 55.4972 114.668 52.602 113.278 49.9769C111.888 47.3519 109.919 45.2287 107.372 43.6073C104.901 41.986 101.928 41.1753 98.4541 41.1753C95.1342 41.1753 92.2003 41.986 89.6525 43.6073C87.1818 45.1515 85.2517 47.2361 83.8619 49.8611C82.4722 52.4862 81.7773 55.3814 81.7773 58.5469C81.7773 61.558 82.4722 64.4147 83.8619 67.1169C85.2517 69.742 87.1818 71.8652 89.6525 73.4865C92.2003 75.1079 95.1342 75.9186 98.4541 75.9186Z" stroke="#820023" stroke-width="8" stroke-linejoin="round" mask="url(#path-1-outside-1_976_12)"/>
<path d="M141.908 88.542V41.6385H133.453V28.3203H141.908V24.2669C141.908 18.1675 143.722 13.2649 147.351 9.55892C150.979 5.85297 155.844 4 161.943 4H168.428V17.3183H164.375C159.82 17.3183 157.542 19.7117 157.542 24.4985V28.3203H169.818V41.6385H157.542V88.542H141.908Z" stroke="#820023" stroke-width="8" stroke-linejoin="round" mask="url(#path-1-outside-1_976_12)"/>
<path d="M172.739 88.542V28.3203H187.91V39.7856C188.914 35.462 190.96 32.1806 194.048 29.9416C197.136 27.6254 201.305 26.6217 206.555 26.9306V41.6385H204.355C199.877 41.6385 196.094 43.0669 193.006 45.9235C189.917 48.7802 188.373 52.7178 188.373 57.7363V88.542H172.739Z" stroke="#820023" stroke-width="8" stroke-linejoin="round" mask="url(#path-1-outside-1_976_12)"/>
<path d="M217.2 23.3404C214.575 23.3404 212.336 22.4525 210.483 20.6768C208.707 18.8238 207.819 16.6234 207.819 14.0755C207.819 11.6049 208.707 9.48172 210.483 7.70595C212.336 5.85297 214.575 4.92648 217.2 4.92648C219.902 4.92648 222.141 5.85297 223.917 7.70595C225.693 9.48172 226.581 11.6049 226.581 14.0755C226.581 16.7006 225.693 18.901 223.917 20.6768C222.141 22.4525 219.902 23.3404 217.2 23.3404ZM209.441 88.542V28.3203H225.075V88.542H209.441Z" stroke="#820023" stroke-width="8" stroke-linejoin="round" mask="url(#path-1-outside-1_976_12)"/>
<path d="M260.727 90.0475C256.403 90.0475 252.35 89.2368 248.567 87.6155C244.861 85.9941 241.579 83.7551 238.723 80.8984C235.866 77.9646 233.627 74.606 232.006 70.8229C230.462 66.9625 229.69 62.8319 229.69 58.4311C229.69 52.5634 231.041 47.2747 233.743 42.565C236.522 37.7782 240.306 33.9564 245.092 31.0997C249.956 28.2431 255.438 26.8147 261.538 26.8147C267.019 26.7375 271.922 27.7026 276.246 29.71C280.569 31.7174 284.005 34.4969 286.553 38.0484L274.508 47.8923C273.119 45.8077 271.304 44.1478 269.065 42.9125C266.903 41.6771 264.471 41.0595 261.769 41.0595C258.449 41.0595 255.554 41.8702 253.083 43.4915C250.613 45.0357 248.683 47.1203 247.293 49.7453C245.98 52.3703 245.324 55.2656 245.324 58.4311C245.324 61.5194 246.019 64.4147 247.409 67.1169C248.876 69.742 250.844 71.8652 253.315 73.4865C255.863 75.0307 258.797 75.8028 262.117 75.8028C265.128 75.8028 267.676 75.1465 269.76 73.834C271.845 72.4442 273.659 70.7071 275.203 68.6225L286.553 78.4664C283.696 82.0951 280.145 84.9518 275.898 87.0364C271.729 89.0438 266.672 90.0475 260.727 90.0475Z" stroke="#820023" stroke-width="8" stroke-linejoin="round" mask="url(#path-1-outside-1_976_12)"/>
<path d="M314.024 90.0475C308.543 90.0475 303.524 88.6578 298.969 85.8783C294.491 83.0216 290.901 79.2385 288.198 74.5288C285.573 69.742 284.261 64.4533 284.261 58.6627C284.261 54.3391 285.033 50.2858 286.577 46.5026C288.121 42.6422 290.244 39.2837 292.947 36.4271C295.649 33.4932 298.776 31.2156 302.327 29.5942C305.956 27.8956 309.855 27.0464 314.024 27.0464C319.274 27.0464 323.366 28.0501 326.3 30.0575C329.234 31.9876 331.512 34.5741 333.133 37.8168V28.3203H348.652V88.542H333.481V78.698C331.859 82.0951 329.543 84.836 326.532 86.9206C323.598 89.0052 319.429 90.0475 314.024 90.0475ZM316.572 75.9186C320.046 75.9186 323.019 75.1465 325.49 73.6023C328.037 71.981 330.006 69.8578 331.396 67.2327C332.786 64.6077 333.481 61.751 333.481 58.6627C333.481 55.4972 332.786 52.602 331.396 49.9769C330.006 47.3519 328.037 45.2287 325.49 43.6073C323.019 41.986 320.046 41.1753 316.572 41.1753C313.252 41.1753 310.318 41.986 307.771 43.6073C305.3 45.1515 303.37 47.2361 301.98 49.8611C300.59 52.4862 299.895 55.3814 299.895 58.5469C299.895 61.558 300.59 64.4147 301.98 67.1169C303.37 69.742 305.3 71.8652 307.771 73.4865C310.318 75.1079 313.252 75.9186 316.572 75.9186Z" stroke="#820023" stroke-width="8" stroke-linejoin="round" mask="url(#path-1-outside-1_976_12)"/>
<path d="M109.578 201.052C108.034 201.052 106.297 200.975 104.367 200.821C102.437 200.666 100.7 200.357 99.1554 199.894L101.472 184.955C103.633 185.495 105.988 185.765 108.536 185.765C111.547 185.765 114.018 184.877 115.948 183.102C117.878 181.403 119.268 179.241 120.117 176.616L120.928 174.068L97.0708 116.626H115.948L127.645 151.022C128.726 154.11 129.575 157.314 130.193 160.634C130.81 157.314 131.66 154.11 132.741 151.022L144.437 116.626H162.967L136.331 180.67C133.783 186.769 130.463 191.672 126.371 195.377C122.279 199.161 116.681 201.052 109.578 201.052Z" stroke="#820023" stroke-width="8" stroke-linejoin="round" mask="url(#path-1-outside-1_976_12)"/>
<path d="M191.788 178.353C185.611 178.353 180.091 176.925 175.227 174.068C170.363 171.212 166.541 167.428 163.762 162.719C161.059 157.932 159.708 152.643 159.708 146.853C159.708 141.062 161.059 135.773 163.762 130.987C166.541 126.2 170.363 122.378 175.227 119.521C180.091 116.665 185.611 115.236 191.788 115.236C198.042 115.236 203.562 116.665 208.349 119.521C213.213 122.378 216.996 126.2 219.698 130.987C222.478 135.773 223.867 141.062 223.867 146.853C223.867 152.643 222.478 157.932 219.698 162.719C216.996 167.428 213.213 171.212 208.349 174.068C203.562 176.925 198.042 178.353 191.788 178.353ZM191.788 164.109C195.108 164.109 198.003 163.336 200.474 161.792C202.944 160.171 204.836 158.048 206.148 155.423C207.538 152.798 208.233 149.941 208.233 146.853C208.233 143.687 207.538 140.792 206.148 138.167C204.836 135.542 202.944 133.457 200.474 131.913C198.003 130.292 195.108 129.481 191.788 129.481C188.468 129.481 185.573 130.292 183.102 131.913C180.631 133.457 178.701 135.542 177.311 138.167C175.999 140.792 175.343 143.687 175.343 146.853C175.343 149.941 175.999 152.798 177.311 155.423C178.701 158.048 180.631 160.171 183.102 161.792C185.573 163.336 188.468 164.109 191.788 164.109Z" stroke="#820023" stroke-width="8" stroke-linejoin="round" mask="url(#path-1-outside-1_976_12)"/>
<path d="M253.139 178.237C248.815 178.237 244.916 177.234 241.442 175.226C237.967 173.219 235.227 170.362 233.219 166.656C231.212 162.873 230.208 158.472 230.208 153.454V116.626H245.843V149.632C245.843 154.805 246.885 158.588 248.969 160.982C251.054 163.375 254.027 164.572 257.887 164.572C261.207 164.572 264.102 163.375 266.573 160.982C269.121 158.588 270.394 154.805 270.394 149.632V116.626H286.029V176.848H270.858V167.815C269.391 171.289 267.229 173.914 264.372 175.69C261.593 177.388 257.848 178.237 253.139 178.237Z" stroke="#820023" stroke-width="8" stroke-linejoin="round" mask="url(#path-1-outside-1_976_12)"/>
<path d="M318.067 176.848C312.122 176.848 307.567 175.381 304.401 172.447C301.236 169.513 299.653 164.765 299.653 158.202V129.944H291.199V116.626H299.653V104.466L315.287 102.845V116.626H328.027V129.944H315.287V157.392C315.287 161.097 316.909 162.95 320.152 162.95H326.637V176.848H318.067Z" stroke="#820023" stroke-width="8" stroke-linejoin="round" mask="url(#path-1-outside-1_976_12)"/>
<path d="M333.253 176.848V92.3058H348.887V124.964C352.13 118.479 358.191 115.236 367.069 115.236C371.393 115.236 375.292 116.24 378.766 118.247C382.241 120.255 384.982 123.112 386.989 126.817C388.996 130.523 390 134.924 390 140.02V176.848H374.366V143.842C374.366 138.592 373.169 134.808 370.775 132.492C368.382 130.099 365.255 128.902 361.395 128.902C358.075 128.902 355.141 130.099 352.593 132.492C350.122 134.808 348.887 138.592 348.887 143.842V176.848H333.253Z" stroke="#820023" stroke-width="8" stroke-linejoin="round" mask="url(#path-1-outside-1_976_12)"/>
<path d="M12.7714 265.154V218.25H4.3172V204.932H12.7714V200.879C12.7714 194.779 14.5858 189.876 18.2145 186.171C21.8433 182.465 26.7073 180.612 32.8067 180.612H39.2921V193.93H35.2387C30.6835 193.93 28.4059 196.323 28.4059 201.11V204.932H40.6818V218.25H28.4059V265.154H12.7714Z" stroke="#820023" stroke-width="8" stroke-linejoin="round" mask="url(#path-1-outside-1_976_12)"/>
<path d="M69.4988 266.659C63.3222 266.659 57.8791 265.231 53.1695 262.374C48.4599 259.517 44.7925 255.734 42.1675 251.025C39.6196 246.238 38.3457 240.949 38.3457 235.159C38.3457 229.368 39.6968 224.079 42.3991 219.292C45.1013 214.428 48.7687 210.568 53.4011 207.711C58.1108 204.855 63.4767 203.426 69.4988 203.426C75.521 203.426 80.8097 204.855 85.3649 207.711C89.9974 210.568 93.5875 214.428 96.1353 219.292C98.7604 224.079 100.073 229.368 100.073 235.159C100.073 236.008 100.034 236.896 99.9571 237.822C99.8799 238.749 99.7641 239.714 99.6097 240.717H54.5592C55.4085 244.269 57.1071 247.164 59.6549 249.403C62.28 251.642 65.5613 252.762 69.4988 252.762C72.8959 252.762 75.8298 251.99 78.3005 250.446C80.8483 248.901 82.8171 246.971 84.2068 244.655L96.367 253.804C93.9735 257.587 90.3834 260.676 85.5966 263.069C80.8097 265.462 75.4438 266.659 69.4988 266.659ZM69.2672 216.86C65.5613 216.86 62.3958 217.98 59.7707 220.219C57.1457 222.458 55.4085 225.392 54.5592 229.021H84.3226C83.4733 225.701 81.6976 222.844 78.9953 220.451C76.3703 218.057 73.1276 216.86 69.2672 216.86Z" stroke="#820023" stroke-width="8" stroke-linejoin="round" mask="url(#path-1-outside-1_976_12)"/>
<path d="M123.538 266.659C113.424 266.659 105.086 263.146 98.523 256.12L109.062 246.508C113.463 251.449 118.172 253.92 123.191 253.92C125.893 253.92 127.939 253.341 129.329 252.183C130.796 250.947 131.529 249.442 131.529 247.666C131.529 246.585 131.259 245.659 130.718 244.887C130.255 244.115 129.213 243.381 127.592 242.686C126.047 241.991 123.693 241.297 120.527 240.602C115.123 239.289 111.108 237.668 108.483 235.738C105.858 233.807 104.121 231.646 103.271 229.252C102.422 226.859 101.997 224.388 101.997 221.84C101.997 216.59 103.966 212.228 107.904 208.754C111.918 205.202 117.439 203.426 124.465 203.426C129.329 203.426 133.498 204.16 136.972 205.627C140.447 207.094 143.728 209.835 146.816 213.849L135.467 222.535C134 220.219 132.34 218.559 130.487 217.555C128.711 216.552 126.819 216.05 124.812 216.05C122.65 216.05 120.836 216.474 119.369 217.324C117.979 218.173 117.284 219.524 117.284 221.377C117.284 222.381 117.748 223.384 118.674 224.388C119.601 225.315 121.84 226.241 125.391 227.168C131.259 228.635 135.737 230.372 138.825 232.379C141.914 234.309 144.037 236.51 145.195 238.98C146.353 241.451 146.932 244.192 146.932 247.203C146.932 250.909 145.89 254.229 143.805 257.163C141.798 260.096 139.018 262.413 135.467 264.111C131.992 265.81 128.016 266.659 123.538 266.659Z" stroke="#820023" stroke-width="8" stroke-linejoin="round" mask="url(#path-1-outside-1_976_12)"/>
<path d="M172.506 265.154C166.561 265.154 162.006 263.687 158.841 260.753C155.675 257.819 154.092 253.071 154.092 246.508V218.25H145.638V204.932H154.092V192.772L169.727 191.15V204.932H182.466V218.25H169.727V245.697C169.727 249.403 171.348 251.256 174.591 251.256H181.076V265.154H172.506Z" stroke="#820023" stroke-width="8" stroke-linejoin="round" mask="url(#path-1-outside-1_976_12)"/>
<path d="M193.135 199.952C190.51 199.952 188.271 199.064 186.418 197.288C184.642 195.435 183.754 193.235 183.754 190.687C183.754 188.217 184.642 186.093 186.418 184.318C188.271 182.465 190.51 181.538 193.135 181.538C195.837 181.538 198.076 182.465 199.852 184.318C201.628 186.093 202.516 188.217 202.516 190.687C202.516 193.312 201.628 195.513 199.852 197.288C198.076 199.064 195.837 199.952 193.135 199.952ZM185.376 265.154V204.932H201.01V265.154H185.376Z" stroke="#820023" stroke-width="8" stroke-linejoin="round" mask="url(#path-1-outside-1_976_12)"/>
<path d="M226.702 265.154L201.571 204.932H220.101L232.145 239.328C233.226 242.416 234.075 245.62 234.693 248.94C235.311 245.62 236.16 242.416 237.241 239.328L249.285 204.932H267.468L242.452 265.154H226.702Z" stroke="#820023" stroke-width="8" stroke-linejoin="round" mask="url(#path-1-outside-1_976_12)"/>
<path d="M291.656 266.659C286.174 266.659 281.156 265.269 276.6 262.49C272.122 259.633 268.532 255.85 265.83 251.14C263.205 246.354 261.892 241.065 261.892 235.274C261.892 230.951 262.664 226.897 264.209 223.114C265.753 219.254 267.876 215.895 270.578 213.039C273.28 210.105 276.407 207.827 279.959 206.206C283.588 204.507 287.487 203.658 291.656 203.658C296.906 203.658 300.998 204.662 303.932 206.669C306.866 208.599 309.143 211.186 310.765 214.428V204.932H326.283V265.154H311.112V255.31C309.491 258.707 307.174 261.448 304.163 263.532C301.23 265.617 297.06 266.659 291.656 266.659ZM294.204 252.53C297.678 252.53 300.65 251.758 303.121 250.214C305.669 248.593 307.638 246.469 309.027 243.844C310.417 241.219 311.112 238.363 311.112 235.274C311.112 232.109 310.417 229.214 309.027 226.589C307.638 223.963 305.669 221.84 303.121 220.219C300.65 218.598 297.678 217.787 294.204 217.787C290.884 217.787 287.95 218.598 285.402 220.219C282.931 221.763 281.001 223.848 279.611 226.473C278.222 229.098 277.527 231.993 277.527 235.159C277.527 238.17 278.222 241.026 279.611 243.729C281.001 246.354 282.931 248.477 285.402 250.098C287.95 251.719 290.884 252.53 294.204 252.53Z" stroke="#820023" stroke-width="8" stroke-linejoin="round" mask="url(#path-1-outside-1_976_12)"/>
<path d="M333.256 265.154V180.612H348.891V265.154H333.256Z" stroke="#820023" stroke-width="8" stroke-linejoin="round" mask="url(#path-1-outside-1_976_12)"/>
<path d="M297.411 269.451C301.212 269.451 304.64 270.234 307.633 271.867C310.567 273.467 312.899 275.648 314.586 278.407L314.905 278.926C316.451 281.542 317.217 284.446 317.217 287.592C317.217 289.829 316.87 291.979 316.169 294.03C316.167 294.035 316.165 294.04 316.163 294.046C315.44 296.103 314.149 298.243 312.387 300.462L304.499 310.742C304.136 311.216 303.751 311.686 303.347 312.156H315.506C316.611 312.156 317.506 313.051 317.506 314.156V315.278L319.508 310.49L319.601 310.296C319.841 309.861 320.236 309.527 320.713 309.366C321.257 309.182 321.853 309.241 322.351 309.528C323.822 310.374 325.465 311.118 327.286 311.756C328.99 312.307 330.845 312.59 332.862 312.59C335.956 312.59 337.832 311.91 338.9 310.939L338.922 310.92C340.086 309.893 340.707 308.533 340.707 306.629C340.707 304.704 340.093 303.261 338.925 302.129C338.918 302.121 338.911 302.114 338.904 302.107C337.879 301.082 335.822 300.304 332.138 300.304C330.252 300.304 328.444 300.567 326.706 301.088C326.695 301.092 326.684 301.095 326.673 301.098C324.94 301.587 323.163 302.304 321.342 303.26C320.672 303.612 319.86 303.555 319.245 303.113C318.63 302.67 318.317 301.917 318.438 301.17L323.143 272.073L323.18 271.894C323.405 271.018 324.198 270.392 325.118 270.392H349.148C350.253 270.392 351.148 271.288 351.148 272.392V281.295C351.148 282.399 350.253 283.295 349.148 283.295H334.724L334.031 287.814C334.654 287.78 335.278 287.763 335.902 287.763C340.194 287.763 343.878 288.603 346.802 290.454H346.803C349.665 292.236 351.819 294.595 353.201 297.524C354.538 300.359 355.202 303.402 355.202 306.629C355.202 310.303 354.291 313.664 352.442 316.655C352.439 316.66 352.436 316.665 352.433 316.67C350.586 319.603 348.012 321.891 344.77 323.539C341.499 325.201 337.752 326 333.587 326C330.661 326 327.868 325.723 325.211 325.161C322.721 324.634 320.152 323.66 317.506 322.276V323.059C317.506 324.164 316.611 325.059 315.506 325.059H279.388C278.284 325.059 277.388 324.164 277.388 323.059V321.901C277.388 321.427 277.556 320.968 277.863 320.607L298.13 296.721L298.142 296.707C299.625 294.992 300.774 293.406 301.613 291.95C302.39 290.552 302.721 289.3 302.721 288.171C302.721 286.43 302.215 285.195 301.328 284.275C300.494 283.411 299.237 282.86 297.266 282.86C295.339 282.86 294.097 283.43 293.254 284.366L293.255 284.367C292.437 285.278 291.883 286.736 291.883 289.04C291.883 290.144 290.988 291.04 289.883 291.04H279.388C279.272 291.04 279.159 291.027 279.048 291.008C279.049 291.1 279.053 291.192 279.053 291.284V304.312C279.053 308.253 278.13 311.896 276.266 315.201L276.267 315.202C274.454 318.455 271.914 321.071 268.68 323.032C265.384 325.031 261.588 326 257.365 326C253.184 326 249.396 325.029 246.062 323.04C246.058 323.037 246.054 323.034 246.049 323.032C242.821 321.074 240.264 318.465 238.404 315.224C238.398 315.213 238.391 315.201 238.384 315.19C236.572 311.886 235.677 308.246 235.677 304.312V291.284C235.677 287.35 236.572 283.729 238.391 280.465L238.397 280.457C240.255 277.166 242.814 274.527 246.049 272.564L246.062 272.556C249.396 270.566 253.184 269.595 257.365 269.595C261.589 269.595 265.383 270.564 268.68 272.564C271.91 274.523 274.444 277.157 276.254 280.444H276.255C276.932 281.626 277.484 282.855 277.915 284.129C278.339 282.247 279.021 280.481 279.975 278.841L279.989 278.818C281.765 275.857 284.178 273.551 287.202 271.931C290.23 270.261 293.651 269.451 297.411 269.451ZM215.979 269.451C219.781 269.451 223.209 270.234 226.202 271.867C229.135 273.467 231.467 275.649 233.153 278.407C234.913 281.156 235.785 284.236 235.785 287.592C235.785 289.829 235.438 291.979 234.736 294.03C234.734 294.035 234.733 294.04 234.731 294.046C234.008 296.103 232.717 298.243 230.955 300.462L230.956 300.463L223.068 310.738C222.705 311.213 222.32 311.685 221.916 312.156H234.074C235.178 312.156 236.074 313.051 236.074 314.156V323.059C236.074 324.164 235.178 325.059 234.074 325.059H197.956C196.851 325.059 195.956 324.164 195.956 323.059V321.901C195.956 321.427 196.124 320.968 196.43 320.607L216.698 296.721L216.71 296.707C218.192 294.993 219.341 293.408 220.179 291.953C220.958 290.554 221.29 289.301 221.29 288.171C221.29 286.43 220.782 285.195 219.895 284.275C219.062 283.411 217.804 282.86 215.834 282.86C213.905 282.86 212.664 283.433 211.82 284.37L211.819 284.369C211.003 285.281 210.451 286.738 210.451 289.04C210.451 290.144 209.555 291.04 208.451 291.04H197.956C196.851 291.04 195.956 290.144 195.956 289.04C195.956 285.259 196.799 281.839 198.544 278.841L198.557 278.818C200.334 275.857 202.745 273.551 205.769 271.931C208.797 270.261 212.219 269.451 215.979 269.451ZM257.365 283.005C254.757 283.006 253.096 283.831 252.011 285.251C250.877 286.751 250.172 289.083 250.172 292.514V303.154C250.172 306.125 250.847 308.427 252.058 310.19C253.163 311.734 254.815 312.59 257.365 312.59C259.986 312.59 261.618 311.72 262.667 310.199C263.882 308.435 264.558 306.13 264.558 303.154V292.514C264.558 289.083 263.853 286.752 262.718 285.252C262.714 285.245 262.709 285.239 262.705 285.233C261.678 283.842 260.04 283.005 257.365 283.005Z" fill="white" stroke="#820023" stroke-width="4" stroke-linejoin="round"/>
</svg>
